<svg height="32" viewBox="0 0 32 32" width="32" xmlns="http://www.w3.org/2000/svg"><path d="m31.937 6.093c-1.177.516-2.437.871-3.765 1.032 1.355-.813 2.391-2.099 2.885-3.631-1.271.74-2.677 1.276-4.172 1.579-1.192-1.276-2.896-2.079-4.787-2.079-3.625 0-6.563 2.937-6.563 6.557 0 .521.063 1.021.172 1.495-5.453-.255-10.287-2.875-13.52-6.833-.568.964-.891 2.084-.891 3.303 0 2.281 1.161 4.281 2.916 5.457-1.073-.031-2.083-.328-2.968-.817v.079c0 3.181 2.26 5.833 5.26 6.437-.547.145-1.131.229-1.724.229-.421 0-.823-.041-1.224-.115.844 2.604 3.26 4.5 6.14 4.557-2.239 1.755-5.077 2.801-8.135 2.801-.521 0-1.041-.025-1.563-.088 2.917 1.86 6.36 2.948 10.079 2.948 12.067 0 18.661-9.995 18.661-18.651 0-.276 0-.557-.021-.839 1.287-.917 2.401-2.079 3.281-3.396z"/></svg>